PathFileType	4	(X/Y/Z)	/Users/itak/Documents/Research/Walk-IL/dataset/trc/00270_00010.trc
DataRate	CameraRate	NumFrames	NumMarkers	Units	OrigDataRate	OrigDataStartFrame	OrigNumFrames
100.000000	100.000000	4	55	mm	100.000000	0	456
Frame#	Time	RPSI			LPSI			L3			STRN			T10			C7			CLAV			RBAK			LBAK			LSHO			LUPA			LAEL			LAOL			LWTS			LWPS			LFRA			LIFD			LHPS			LHTS			RSHO			RUPA			RAEL			RAOL			RWTS			RWPS			RFRA			RIFD			RHTS			RHPS			RBHD			LFHD			RFHD			LBHD			LHIP			RASI			LKNE			LANK			LTIP			LTOE			LMT1			LMT5			LHEE			RKNE			RTHI			RANK			RTIP			RTOE			RMT1			RMT5			RHEE			RHIP			LTHI			LASI			*53			*54			
		X1	Y1	Z1	X2	Y2	Z2	X3	Y3	Z3	X4	Y4	Z4	X5	Y5	Z5	X6	Y6	Z6	X7	Y7	Z7	X8	Y8	Z8	X9	Y9	Z9	X10	Y10	Z10	X11	Y11	Z11	X12	Y12	Z12	X13	Y13	Z13	X14	Y14	Z14	X15	Y15	Z15	X16	Y16	Z16	X17	Y17	Z17	X18	Y18	Z18	X19	Y19	Z19	X20	Y20	Z20	X21	Y21	Z21	X22	Y22	Z22	X23	Y23	Z23	X24	Y24	Z24	X25	Y25	Z25	X26	Y26	Z26	X27	Y27	Z27	X28	Y28	Z28	X29	Y29	Z29	X30	Y30	Z30	X31	Y31	Z31	X32	Y32	Z32	X33	Y33	Z33	X34	Y34	Z34	X35	Y35	Z35	X36	Y36	Z36	X37	Y37	Z37	X38	Y38	Z38	X39	Y39	Z39	X40	Y40	Z40	X41	Y41	Z41	X42	Y42	Z42	X43	Y43	Z43	X44	Y44	Z44	X45	Y45	Z45	X46	Y46	Z46	X47	Y47	Z47	X48	Y48	Z48	X49	Y49	Z49	X50	Y50	Z50	X51	Y51	Z51	X52	Y52	Z52	X53	Y53	Z53	X54	Y54	Z54	X55	Y55	Z55	

1	0	847.763427734375	994.289306640625	65.72229766845703	852.41552734375	987.6034545898438	-108.0263595581055	868.7405395507812	1065.62060546875	-26.34559631347656	1113.366943359375	1246.64697265625	-25.68653869628906	851.5900268554688	1176.014404296875	-29.79382705688477	886.701171875	1420.1767578125	-47.43699645996094	1049.008178710938	1346.455688476562	-31.52116584777832	838.51953125	1282.963745117188	29.84800910949707	878.3585815429688	1384.635620117188	-151.6730041503906	970.6640625	1395.355834960938	-197.4644927978516	954.786865234375	1276.90283203125	-274.6534118652344	975.266845703125	1074.216186523438	-291.1082763671875	905.4119873046875	1056.983154296875	-241.9634246826172	1057.808349609375	856.1953735351562	-232.2888488769531	1033.100952148438	844.087158203125	-299.2983703613281	995.6709594726562	970.7487182617188	-297.3658752441406	1070.200439453125	669.0015258789062	-234.9279022216797	1041.789306640625	756.8880615234375	-297.4684448242188	1089.828491210938	760.3143920898438	-252.6122589111328	949.6304931640625	1403.057495117188	115.7446212768555	943.58203125	1344.423706054688	182.7052764892578	951.3721923828125	1080.052001953125	238.1871643066406	920.7647705078125	1066.879516601562	147.182861328125	1071.460327148438	863.9322509765625	201.0590972900391	1023.953552246094	857.9718017578125	270.5310363769531	980.2706909179688	1014.930725097656	253.4170684814453	1096.860473632812	679.1243286132812	209.3161773681641	1108.327758789062	751.7024536132812	222.8374176025391	1056.625244140625	747.5125732421875	269.9145812988281	892.4463500976562	1576.981567382812	31.34575080871582	1057.334106445312	1638.402465820312	-87.82900238037109	1055.861328125	1635.883178710938	4.820375919342041	897.1251831054688	1569.965209960938	-116.9374694824219	922.6722412109375	941.7699584960938	-202.8786163330078	1067.642822265625	955.1049194335938	101.6529998779297	1007.112854003906	477.9746704101562	-174.6161041259766	899.4058227539062	37.73273468017578	-152.7220458984375	946.6994018554688	253.5829010009766	-174.1098480224609	1106.615844726562	27.57367134094238	-91.57142639160156	1035.177001953125	21.95301628112793	-53.12778854370117	1023.012634277344	33.72488784790039	-164.464599609375	853.6722412109375	32.29636383056641	-94.10316467285156	1003.794067382812	473.04296875	131.8070373535156	1019.678955078125	735.886962890625	166.8929595947266	904.8502197265625	37.26699829101562	105.5354156494141	1004.869323730469	347.2870483398438	119.3107833862305	1102.874633789062	32.97258758544922	56.17060470581055	1045.499145507812	31.73937034606934	14.95362186431885	1009.146789550781	28.60813522338867	126.9265823364258	852.4369506835938	32.21853256225586	54.23885726928711	947.3723754882812	945.732421875	170.283203125	970.5685424804688	623.3796997070312	-201.5307464599609	1059.479248046875	952.9429321289062	-149.941162109375	nan	nan	nan	nan	nan	nan	
2	0.01	847.5772705078125	994.2618408203125	65.95774841308594	852.2920532226562	987.6001586914062	-107.8191070556641	868.5782470703125	1065.651977539062	-26.07308769226074	1113.1376953125	1246.66162109375	-25.42035484313965	851.5062255859375	1176.028442382812	-29.58431625366211	886.5601196289062	1420.219360351562	-47.16675186157227	1048.73974609375	1346.433715820312	-31.27325439453125	838.1640014648438	1282.997436523438	30.06234931945801	878.1453857421875	1384.631591796875	-151.4249877929688	970.4820556640625	1395.39453125	-197.2022247314453	954.618408203125	1276.905395507812	-274.4131164550781	975.1797485351562	1074.243408203125	-290.8729553222656	905.356689453125	1056.98681640625	-241.8099975585938	1057.900390625	856.28173828125	-232.0150299072266	1033.177734375	844.1956787109375	-299.0392456054688	995.5960693359375	970.8453979492188	-297.1544494628906	1070.527954101562	669.1737060546875	-234.7850036621094	1041.926147460938	756.8880615234375	-297.2409973144531	1090.0390625	760.4559936523438	-252.3852844238281	949.4468994140625	1403.09716796875	116.0086975097656	943.3284301757812	1344.486572265625	182.9454193115234	951.2291870117188	1080.097412109375	238.4932708740234	920.6104736328125	1066.903076171875	147.475830078125	1071.370483398438	864.050048828125	201.2294921875	1023.849670410156	858.03515625	270.7265625	980.004150390625	1014.979797363281	253.6325378417969	1096.877563476562	679.249755859375	209.4318084716797	1108.388427734375	751.8560180664062	222.9967803955078	1056.626098632812	747.6026000976562	270.0811157226562	892.3053588867188	1576.98388671875	31.50054359436035	1057.092529296875	1638.416748046875	-87.59305572509766	1055.704833984375	1635.940795898438	4.983645915985107	896.9306640625	1569.963745117188	-116.689811706543	922.5067749023438	941.7689208984375	-202.6765747070312	1067.41552734375	955.07861328125	101.9087295532227	1007.107543945312	477.9874572753906	-174.4972076416016	899.40625	37.73636245727539	-152.7104644775391	946.6607666015625	253.6049957275391	-174.0378570556641	1106.617309570312	27.56553268432617	-91.56205749511719	1035.174560546875	21.94413375854492	-53.12480926513672	1023.022644042969	33.72642135620117	-164.4584350585938	853.6739501953125	32.29964828491211	-94.0927734375	1003.666015625	473.0329895019531	131.9152374267578	1019.439208984375	735.7302856445312	167.0939636230469	904.8430786132812	37.27592849731445	105.5696029663086	1004.816955566406	347.2785949707031	119.3691940307617	1102.874877929688	32.97393035888672	56.16814804077148	1045.499877929688	31.73788070678711	14.95754814147949	1009.143859863281	28.60885429382324	126.9255752563477	852.4403686523438	32.21305847167969	54.24170303344727	947.1061401367188	945.7606201171875	170.5606079101562	970.3963012695312	623.4505004882812	-201.4260101318359	1059.334838867188	952.9844970703125	-149.6559143066406	nan	nan	nan	nan	nan	nan	
3	0.02	847.349365234375	994.2316284179688	66.25635528564453	852.126953125	987.5955810546875	-107.5500640869141	868.3729858398438	1065.690673828125	-25.74120330810547	1112.847290039062	1246.680419921875	-25.07951354980469	851.3900756835938	1176.043090820312	-29.31315040588379	886.3672485351562	1420.270263671875	-46.81986236572266	1048.39599609375	1346.408813476562	-30.95567512512207	837.736083984375	1283.037963867188	30.34379577636719	877.8733520507812	1384.643432617188	-151.1123657226562	970.24951171875	1395.439086914062	-196.8697967529297	954.4031982421875	1276.915283203125	-274.1002807617188	975.0650634765625	1074.281494140625	-290.5860595703125	905.2577514648438	1056.994995117188	-241.5978698730469	1058.0107421875	856.3953857421875	-231.6726989746094	1033.262084960938	844.33056640625	-298.71728515625	995.4965209960938	970.961669921875	-296.8904418945312	1070.935791015625	669.408203125	-234.5916442871094	1042.09765625	756.908447265625	-296.9461059570312	1090.286865234375	760.632568359375	-252.1033935546875	949.2163696289062	1403.147705078125	116.3490219116211	943.0263061523438	1344.561889648438	183.2657623291016	951.0180053710938	1080.156494140625	238.8775177001953	920.3876342773438	1066.942016601562	147.854736328125	1071.254150390625	864.19873046875	201.4669342041016	1023.71142578125	858.1184692382812	270.9885559082031	979.6920776367188	1015.045288085938	253.9293823242188	1096.890747070312	679.4063720703125	209.599609375	1108.450561523438	752.04833984375	223.2197875976562	1056.63671875	747.7218627929688	270.3185424804688	892.1192626953125	1576.965087890625	31.68979835510254	1056.792358398438	1638.426879882812	-87.31056976318359	1055.48486328125	1635.998046875	5.213362693786621	896.672119140625	1569.94775390625	-116.3665924072266	922.29052734375	941.7671508789062	-202.3986358642578	1067.14013671875	955.0489501953125	102.2412261962891	1007.088256835938	478.0065307617188	-174.3351287841797	899.408935546875	37.74070358276367	-152.695556640625	946.6143188476562	253.6336669921875	-173.9508209228516	1106.622924804688	27.55608177185059	-91.55081939697266	1035.172973632812	21.93619537353516	-53.12158966064453	1023.035522460938	33.72868728637695	-164.4501342773438	853.6778564453125	32.30501937866211	-94.08114624023438	1003.509582519531	473.0221252441406	132.0572662353516	1019.1279296875	735.5375366210938	167.3599853515625	904.8349609375	37.28314208984375	105.604606628418	1004.740539550781	347.2640686035156	119.4448318481445	1102.874389648438	32.97304916381836	56.16460037231445	1045.500854492188	31.73789024353027	14.96162700653076	1009.141296386719	28.60859680175781	126.9248123168945	852.4454345703125	32.20517349243164	54.24670791625977	946.7855224609375	945.782958984375	170.9067535400391	970.2010498046875	623.5255126953125	-201.2745819091797	1059.15185546875	953.037841796875	-149.2950592041016	nan	nan	nan	nan	nan	nan	
4	0.03	847.0847778320312	994.203369140625	66.60426330566406	851.9228515625	987.5878295898438	-107.228759765625	868.1314697265625	1065.732543945312	-25.36628723144531	1112.506103515625	1246.702270507812	-24.67424392700195	851.2366333007812	1176.058349609375	-28.98644638061523	886.1237182617188	1420.325927734375	-46.40777206420898	1047.989379882812	1346.383178710938	-30.57777976989746	837.2667846679688	1283.083740234375	30.68913269042969	877.5521240234375	1384.676025390625	-150.7463073730469	969.9737548828125	1395.485961914062	-196.4784851074219	954.1484375	1276.936401367188	-273.7242736816406	974.9213256835938	1074.330444335938	-290.261962890625	905.1048583984375	1057.008422851562	-241.3284606933594	1058.129150390625	856.5365600585938	-231.2808074951172	1033.346435546875	844.4847412109375	-298.3463745117188	995.374267578125	971.0899658203125	-296.5833129882812	1071.389526367188	669.697998046875	-234.3551483154297	1042.295776367188	756.9586791992188	-296.5923156738281	1090.554931640625	760.8419189453125	-251.7766876220703	948.946533203125	1403.206665039062	116.7554473876953	942.6963500976562	1344.644653320312	183.6608581542969	950.739501953125	1080.227783203125	239.3266754150391	920.0877685546875	1066.9990234375	148.3111267089844	1071.114501953125	864.3724975585938	201.7747650146484	1023.540710449219	858.2201538085938	271.3154602050781	979.3601684570312	1015.125793457031	254.3094177246094	1096.899169921875	679.5887451171875	209.8271789550781	1108.501831054688	752.2706298828125	223.5088806152344	1056.658935546875	747.8680419921875	270.6314392089844	891.8871459960938	1576.9150390625	31.90122985839844	1056.443115234375	1638.427612304688	-86.99340057373047	1055.201049804688	1636.045532226562	5.509160041809082	896.35498046875	1569.91259765625	-115.9762878417969	922.0338745117188	941.7642211914062	-202.0498199462891	1066.830688476562	955.0189208984375	102.642219543457	1007.052185058594	478.0307006835938	-174.1317291259766	899.4144287109375	37.74629211425781	-152.6778717041016	946.56298828125	253.6680450439453	-173.8534545898438	1106.63330078125	27.54583168029785	-91.53898620605469	1035.172729492188	21.93000411987305	-53.1180305480957	1023.050659179688	33.73199844360352	-164.4401550292969	853.6846313476562	32.31258773803711	-94.06951141357422	1003.332641601562	473.0111083984375	132.2299346923828	1018.755249023438	735.322509765625	167.6861877441406	904.8260498046875	37.28720092773438	105.6366958618164	1004.639831542969	347.2427368164062	119.5358047485352	1102.872436523438	32.97063446044922	56.16013717651367	1045.501953125	31.73967361450195	14.96573734283447	1009.139099121094	28.60695648193359	126.9248504638672	852.4519653320312	32.19461441040039	54.25446319580078	946.43017578125	945.7924194335938	171.3027648925781	969.9946899414062	623.5949096679688	-201.0722503662109	1058.9365234375	953.100830078125	-148.8720245361328	nan	nan	nan	nan	nan	nan	
